<svg width="92" height="20" viewBox="0 0 92 20" fill="none" xmlns="http://www.w3.org/2000/svg">
<path d="M18.9203 12.4191C17.6374 17.7763 12.4259 21.0365 7.27975 19.7006C2.13573 18.365 -0.995769 12.9388 0.287684 7.58198C1.56994 2.22422 6.7815 -1.03637 11.9261 0.299246C17.0719 1.63486 20.2031 7.06168 18.9203 12.4191Z" fill="#FCA014"/>
<path d="M13.8386 8.57478C14.0298 7.24417 13.0567 6.52886 11.7262 6.05168L12.1578 4.24919L11.1039 3.97576L10.6837 5.73074C10.4067 5.65887 10.1221 5.59106 9.8394 5.52387L10.2626 3.75732L9.20938 3.48389L8.77746 5.28574C8.54814 5.23137 8.32302 5.17762 8.10451 5.12106L8.10571 5.11544L6.65238 4.73762L6.37204 5.90949C6.37204 5.90949 7.15393 6.09605 7.13742 6.10761C7.56424 6.21855 7.64138 6.5126 7.62847 6.74573L7.13682 8.79915C7.16624 8.80696 7.20436 8.81821 7.24638 8.83571C7.21126 8.82665 7.17374 8.81665 7.13502 8.80696L6.44587 11.6835C6.39364 11.8185 6.26128 12.021 5.96293 11.9441C5.97343 11.9601 5.19694 11.7451 5.19694 11.7451L4.67377 13.001L6.04517 13.3569C6.3003 13.4235 6.55032 13.4932 6.79645 13.5588L6.36033 15.3819L7.41296 15.6553L7.84488 13.8516C8.13243 13.9328 8.41157 14.0078 8.68471 14.0785L8.2543 15.8738L9.30813 16.1472L9.74425 14.3275C11.5413 14.6816 12.8926 14.5388 13.4613 12.8466C13.9197 11.4841 13.4385 10.6982 12.493 10.1857C13.1816 10.0204 13.7003 9.54883 13.8386 8.57478ZM11.4308 12.0901C11.1051 13.4525 8.90172 12.716 8.18736 12.5313L8.76605 10.116C9.48042 10.3016 11.7712 10.6691 11.4308 12.0901ZM11.7568 8.55509C11.4596 9.79445 9.62569 9.16477 9.03078 9.01039L9.55546 6.8198C10.1504 6.97417 12.0662 7.26229 11.7568 8.55509Z" fill="white"/>
<g opacity="0.5">
<path d="M28.1472 6.04988C28.9261 6.04988 29.5991 6.19519 30.1646 6.4805C30.7327 6.76862 31.2016 7.15674 31.5777 7.64486C31.9487 8.13548 32.2248 8.70891 32.4031 9.36609C32.5802 10.0252 32.669 10.7336 32.669 11.492C32.669 12.657 32.464 13.7576 32.0501 14.7951C31.6362 15.8342 31.0746 16.7354 30.3602 17.5041C29.6465 18.2719 28.8037 18.8773 27.8318 19.3244C26.8614 19.7719 25.8063 19.9957 24.6736 19.9957C24.5271 19.9957 24.2695 19.9913 23.9058 19.9835C23.542 19.9757 23.1239 19.9366 22.6556 19.8707C22.1844 19.8022 21.6861 19.701 21.16 19.5654C20.6341 19.4322 20.1346 19.2457 19.6643 19.0088L23.87 0.61025L27.637 0.00244141L26.1311 6.53144C26.4535 6.38019 26.7782 6.263 27.1024 6.17769C27.4269 6.09363 27.775 6.04988 28.1472 6.04988ZM24.9875 16.8845C25.5548 16.8845 26.0894 16.7391 26.5915 16.4538C27.0952 16.1682 27.5298 15.7826 27.8939 15.3023C28.258 14.8198 28.5461 14.2764 28.7562 13.6692C28.9663 13.062 29.0726 12.4286 29.0726 11.7695C29.0726 10.9598 28.9426 10.3283 28.6836 9.87172C28.4246 9.41704 27.9452 9.18828 27.2492 9.18828C27.0211 9.18828 26.7272 9.23359 26.3628 9.31453C25.9972 9.40047 25.6701 9.57891 25.3768 9.84734L23.7734 16.781C23.8701 16.7988 23.9556 16.8157 24.0285 16.8316C24.1 16.8488 24.1789 16.861 24.2575 16.8695C24.3407 16.8791 24.4358 16.8841 24.5508 16.8841C24.6658 16.8841 24.8095 16.8845 24.9875 16.8845Z" fill="#90A3BF"/>
<path d="M36.5753 19.6434H32.9774L36.0159 6.33202H39.6384L36.5753 19.6434ZM38.3261 4.71016C37.824 4.71016 37.3687 4.55454 36.9646 4.24266C36.5573 3.93267 36.3556 3.45549 36.3556 2.81237C36.3556 2.45862 36.4247 2.12674 36.5615 1.81362C36.7005 1.50113 36.8821 1.23207 37.1096 1.00332C37.3368 0.77645 37.6001 0.595198 37.899 0.458637C38.1998 0.324263 38.5197 0.25708 38.8607 0.25708C39.3626 0.25708 39.8155 0.412704 40.221 0.724576C40.625 1.03801 40.8282 1.51519 40.8282 2.15487C40.8282 2.50987 40.7595 2.84299 40.6214 3.15549C40.4842 3.46798 40.3026 3.73704 40.0751 3.96579C39.8497 4.19297 39.5841 4.3736 39.2857 4.50891C38.9847 4.64547 38.6659 4.71016 38.3261 4.71016Z" fill="#90A3BF"/>
<path d="M42.7911 3.01528L46.5595 2.40747L45.6341 6.33118H49.67L48.9412 9.41802H44.9296L43.8611 14.0742C43.7626 14.4624 43.7068 14.8248 43.6912 15.1617C43.6735 15.5001 43.7146 15.7908 43.8119 16.0355C43.9085 16.2808 44.0823 16.4698 44.3344 16.6036C44.5854 16.7395 44.9447 16.808 45.4159 16.808C45.804 16.808 46.1822 16.7695 46.5478 16.6933C46.9113 16.6183 47.2795 16.5139 47.6523 16.3773L47.9207 19.2636C47.4344 19.4492 46.9079 19.6089 46.3407 19.7432C45.7725 19.8795 45.0998 19.9451 44.3224 19.9451C43.2047 19.9451 42.3381 19.7723 41.7207 19.4282C41.1042 19.0817 40.6684 18.6082 40.4075 18.0089C40.1503 17.4117 40.0353 16.7233 40.0675 15.9476C40.1008 15.1702 40.2133 14.353 40.4075 13.4924L42.7911 3.01528Z" fill="#90A3BF"/>
</g>
<path d="M49.5125 14.3277C49.5125 13.1812 49.6908 12.0999 50.0471 11.0878C50.4028 10.0746 50.9151 9.18871 51.58 8.4284C52.2424 7.67185 53.0495 7.07248 53.9995 6.63248C54.945 6.19498 56.0036 5.97437 57.1703 5.97437C57.9006 5.97437 58.5528 6.04624 59.1267 6.1903C59.703 6.33561 60.2244 6.52343 60.6959 6.75905L59.4551 9.69652C59.1309 9.55965 58.7944 9.43902 58.4466 9.32964C58.0984 9.21808 57.6734 9.16434 57.1706 9.16434C55.9697 9.16434 55.0203 9.59527 54.3138 10.4543C53.6099 11.314 53.2554 12.4712 53.2554 13.9227C53.2554 14.783 53.4337 15.4786 53.7915 16.0108C54.1475 16.543 54.8051 16.8077 55.7599 16.8077C56.2311 16.8077 56.6859 16.7564 57.1214 16.6565C57.5602 16.5552 57.9477 16.4277 58.289 16.2771L58.5576 19.2883C58.1026 19.472 57.6007 19.638 57.0502 19.7833C56.4986 19.9236 55.8418 19.9964 55.0803 19.9964C54.0751 19.9964 53.2242 19.8433 52.5281 19.5417C51.8318 19.2355 51.2564 18.8289 50.8032 18.3139C50.3475 17.7977 50.0204 17.1949 49.8181 16.503C49.6158 15.8118 49.5125 15.0855 49.5125 14.3277Z" fill="#90A3BF"/>
<path d="M65.4948 19.9964C64.636 19.9964 63.8901 19.8602 63.2574 19.5905C62.6265 19.3208 62.1039 18.9424 61.6906 18.4517C61.2767 17.9636 60.967 17.3852 60.7547 16.7186C60.5425 16.0524 60.4405 15.3146 60.4405 14.5062C60.4405 13.4921 60.5969 12.4784 60.9129 11.4674C61.2275 10.4543 61.6942 9.54402 62.3119 8.73497C62.9249 7.92466 63.6809 7.26216 64.5712 6.7456C65.4605 6.23248 66.4835 5.97437 67.6325 5.97437C68.4756 5.97437 69.2176 6.11092 69.859 6.38061C70.4974 6.64967 71.0233 7.03123 71.439 7.51935C71.8502 8.00997 72.1627 8.58591 72.3728 9.2534C72.5844 9.91839 72.6888 10.6581 72.6888 11.4671C72.6888 12.478 72.5346 13.4918 72.2284 14.5058C71.9219 15.5149 71.4672 16.4274 70.8669 17.2383C70.2678 18.0474 69.5186 18.7096 68.6188 19.2239C67.7201 19.7383 66.678 19.9964 65.4948 19.9964ZM67.293 9.16465C66.7596 9.16465 66.2881 9.32589 65.8844 9.64432C65.4792 9.96651 65.1388 10.3715 64.8644 10.8599C64.5871 11.3506 64.3815 11.8856 64.2425 12.4671C64.1048 13.0499 64.0372 13.6009 64.0372 14.1243C64.0372 14.969 64.1681 15.6268 64.4253 16.1002C64.6862 16.5711 65.1547 16.808 65.8357 16.808C66.3709 16.808 66.8401 16.648 67.2462 16.3261C67.649 16.0065 67.9896 15.6011 68.2661 15.1118C68.5416 14.6237 68.749 14.0871 68.888 13.5046C69.024 12.9237 69.0933 12.3696 69.0933 11.8471C69.0933 11.0046 68.963 10.3453 68.7034 9.87245C68.4441 9.40152 67.9734 9.16465 67.293 9.16465Z" fill="#90A3BF"/>
<path d="M76.6105 19.6434H73.0095L76.048 6.33202H79.6723L76.6105 19.6434ZM78.3585 4.71016C77.8567 4.71016 77.4017 4.55454 76.9983 4.24266C76.593 3.93267 76.3895 3.45549 76.3895 2.81237C76.3895 2.45862 76.4595 2.12674 76.5966 1.81362C76.7338 1.50113 76.9166 1.23207 77.1441 1.00332C77.3701 0.77645 77.6358 0.595198 77.9341 0.458637C78.2331 0.324263 78.553 0.25708 78.8928 0.25708C79.3959 0.25708 79.8503 0.412704 80.2549 0.724576C80.6598 1.03801 80.8642 1.51519 80.8642 2.15487C80.8642 2.50987 80.7916 2.84299 80.6556 3.15549C80.5197 3.46798 80.3369 3.73704 80.1102 3.96579C79.8821 4.19297 79.6198 4.3736 79.3208 4.50891C79.0195 4.64547 78.7001 4.71016 78.3585 4.71016Z" fill="#90A3BF"/>
<path d="M82.2659 6.93733C82.5391 6.8542 82.844 6.75421 83.1757 6.64546C83.5086 6.53671 83.8805 6.43546 84.2959 6.34421C84.7068 6.25015 85.1705 6.1739 85.6805 6.11484C86.1904 6.05453 86.7715 6.02515 87.4172 6.02515C89.3147 6.02515 90.6228 6.60046 91.345 7.74764C92.0665 8.89481 92.1914 10.4648 91.7232 12.4548L90.0681 19.6422H86.4465L88.0505 12.606C88.1483 12.1667 88.2252 11.742 88.2819 11.327C88.3392 10.9157 88.3359 10.5532 88.269 10.2395C88.2051 9.92949 88.0544 9.67574 87.8206 9.47918C87.5831 9.28574 87.2245 9.18856 86.7379 9.18856C86.2688 9.18856 85.7915 9.24106 85.3044 9.34231L82.9461 19.6419H79.3229L82.2659 6.93733Z" fill="#90A3BF"/>
</svg>
