<svg width="96" height="20" viewBox="0 0 96 20" fill="none" xmlns="http://www.w3.org/2000/svg">
<path d="M35.898 4.47266H30.5854C30.4095 4.47256 30.2394 4.52606 30.1056 4.62351C29.9719 4.72096 29.8833 4.85595 29.8559 5.00417L27.7073 16.6266C27.6974 16.6805 27.7013 16.7356 27.7188 16.7881C27.7363 16.8406 27.7669 16.8893 27.8086 16.9307C27.8502 16.9722 27.9019 17.0054 27.96 17.0282C28.0182 17.051 28.0814 17.0627 28.1454 17.0627H30.6817C30.8577 17.0627 31.0279 17.0091 31.1617 16.9115C31.2954 16.814 31.3839 16.6788 31.4111 16.5305L31.9906 13.3957C32.0178 13.2475 32.1062 13.1124 32.2398 13.0149C32.3734 12.9173 32.5434 12.8636 32.7193 12.8636H34.4011C37.9006 12.8636 39.9203 11.4188 40.4478 8.55577C40.6855 7.3032 40.4579 6.31904 39.7704 5.62979C39.0153 4.87295 37.6761 4.47266 35.898 4.47266ZM36.5109 8.71748C36.2204 10.3438 34.7638 10.3438 33.3555 10.3438H32.5538L33.1162 7.30651C33.1327 7.21765 33.1858 7.13672 33.266 7.07829C33.3461 7.01985 33.4481 6.98774 33.5536 6.98774H33.921C34.8804 6.98774 35.7853 6.98774 36.253 7.45431C36.5319 7.73265 36.6173 8.1462 36.5109 8.71748ZM51.7784 8.66512H49.2343C49.1289 8.66513 49.0269 8.69723 48.9467 8.75567C48.8665 8.81411 48.8134 8.89504 48.797 8.9839L48.6843 9.59097L48.5064 9.37094C47.9557 8.68898 46.7275 8.461 45.5017 8.461C42.6904 8.461 40.2893 10.2776 39.8217 12.8258C39.5785 14.0969 39.9242 15.3124 40.7694 16.16C41.5446 16.9394 42.6539 17.2641 43.9737 17.2641C46.2389 17.2641 47.495 16.0215 47.495 16.0215L47.3816 16.6246C47.3715 16.6785 47.3752 16.7337 47.3925 16.7862C47.4098 16.8388 47.4402 16.8876 47.4817 16.9291C47.5232 16.9707 47.5748 17.0041 47.6329 17.0271C47.6909 17.05 47.7542 17.0619 47.8182 17.062H50.1098C50.2858 17.0621 50.456 17.0085 50.5897 16.9109C50.7235 16.8133 50.812 16.6781 50.8392 16.5298L52.2141 9.1012C52.2243 9.0474 52.2206 8.99237 52.2033 8.93991C52.1861 8.88744 52.1557 8.8388 52.1143 8.79733C52.0728 8.75587 52.0213 8.72257 51.9633 8.69975C51.9053 8.67692 51.8422 8.66511 51.7784 8.66512ZM48.2322 12.8894C47.9867 14.1294 46.8332 14.9618 45.3619 14.9618C44.6231 14.9618 44.0328 14.7596 43.6537 14.3766C43.2777 13.9962 43.1348 13.4547 43.2544 12.8516C43.4836 11.6223 44.6565 10.7627 46.1053 10.7627C46.8277 10.7627 47.415 10.9675 47.8019 11.3538C48.1895 11.7442 48.3433 12.289 48.2322 12.8894ZM65.3275 8.66512H62.771C62.6505 8.66529 62.5318 8.69054 62.4252 8.7387C62.3187 8.78686 62.2275 8.85647 62.1597 8.94148L58.6337 13.3725L57.1391 9.11446C57.0933 8.98459 56.9996 8.87077 56.872 8.78984C56.7444 8.70892 56.5897 8.66519 56.4307 8.66512H53.9185C53.848 8.66496 53.7784 8.67918 53.7156 8.70658C53.6529 8.73398 53.5987 8.77378 53.5575 8.82266C53.5164 8.87154 53.4896 8.92809 53.4793 8.98761C53.469 9.04713 53.4755 9.10788 53.4982 9.16483L56.3142 16.215L53.6668 19.4034C53.6197 19.46 53.5918 19.5265 53.5861 19.5956C53.5804 19.6648 53.5971 19.7339 53.6344 19.7955C53.6717 19.8571 53.7282 19.9088 53.7976 19.9448C53.867 19.9809 53.9467 19.9999 54.028 19.9999H56.5814C56.7006 20 56.8181 19.9755 56.9237 19.9284C57.0294 19.8813 57.1201 19.8131 57.1881 19.7295L65.6911 9.25827C65.7372 9.20162 65.7642 9.13529 65.7692 9.06646C65.7743 8.99764 65.7571 8.92895 65.7197 8.86784C65.6822 8.80673 65.6259 8.75553 65.5568 8.7198C65.4876 8.68406 65.4083 8.66516 65.3275 8.66512Z" fill="#022273"/>
<path d="M73.7879 4.47332H68.4745C68.2987 4.47338 68.1288 4.52695 67.9952 4.62439C67.8616 4.72182 67.7732 4.85673 67.7458 5.00483L65.5972 16.6272C65.5872 16.6811 65.591 16.7361 65.6083 16.7886C65.6257 16.841 65.6561 16.8897 65.6976 16.9311C65.7391 16.9726 65.7907 17.0059 65.8487 17.0287C65.9067 17.0515 65.9699 17.0633 66.0337 17.0633H68.7604C68.8834 17.0632 69.0023 17.0256 69.0957 16.9573C69.1891 16.889 69.2509 16.7945 69.2699 16.6909L69.8797 13.3964C69.907 13.2482 69.9953 13.1131 70.1289 13.0155C70.2625 12.918 70.4325 12.8643 70.6084 12.8642H72.2894C75.7897 12.8642 77.8087 11.4195 78.3369 8.55644C78.5754 7.30386 78.3462 6.3197 77.6587 5.63046C76.9045 4.87361 75.566 4.47332 73.7879 4.47332ZM74.4008 8.71814C74.111 10.3445 72.6545 10.3445 71.2454 10.3445H70.4445L71.0077 7.30718C71.0238 7.21831 71.0767 7.13732 71.1568 7.07885C71.2369 7.02037 71.3388 6.98829 71.4442 6.9884H71.8117C72.7703 6.9884 73.676 6.9884 74.1437 7.45497C74.4225 7.73332 74.5072 8.14686 74.4008 8.71814ZM89.6675 8.66579H87.125C87.0195 8.66554 86.9175 8.69757 86.8374 8.75607C86.7573 8.81457 86.7044 8.89564 86.6884 8.98456L86.5758 9.59163L86.3971 9.3716C85.8463 8.68965 84.619 8.46166 83.3932 8.46166C80.5819 8.46166 78.1815 10.2782 77.7139 12.8264C77.4715 14.0976 77.8157 15.313 78.6608 16.1607C79.4376 16.94 80.5454 17.2648 81.8652 17.2648C84.1304 17.2648 85.3865 16.0222 85.3865 16.0222L85.2731 16.6252C85.2629 16.6793 85.2667 16.7345 85.2841 16.7872C85.3014 16.8399 85.332 16.8887 85.3737 16.9303C85.4153 16.9719 85.4671 17.0053 85.5254 17.0281C85.5836 17.051 85.647 17.0628 85.7112 17.0627H88.002C88.1779 17.0626 88.3479 17.0089 88.4815 16.9113C88.6151 16.8138 88.7034 16.6787 88.7306 16.5305L90.1064 9.10187C90.1161 9.0479 90.1121 8.99277 90.0945 8.94026C90.0769 8.88775 90.0462 8.83911 90.0045 8.79768C89.9628 8.75625 89.9111 8.72301 89.8529 8.70025C89.7948 8.67748 89.7315 8.66572 89.6675 8.66579ZM86.1213 12.8901C85.8774 14.13 84.7223 14.9624 83.251 14.9624C82.5138 14.9624 81.9219 14.7603 81.5428 14.3772C81.1668 13.9968 81.0254 13.4554 81.1435 12.8523C81.3742 11.6229 82.5457 10.7633 83.9944 10.7633C84.7169 10.7633 85.3041 10.9681 85.691 11.3545C86.0802 11.7449 86.234 12.2896 86.1213 12.8901ZM92.6668 4.79209L90.4862 16.6272C90.4763 16.6811 90.4801 16.7361 90.4974 16.7886C90.5147 16.841 90.5452 16.8897 90.5867 16.9311C90.6282 16.9726 90.6797 17.0059 90.7378 17.0287C90.7958 17.0515 90.8589 17.0633 90.9228 17.0633H93.115C93.4793 17.0633 93.7885 16.838 93.8444 16.5311L95.9946 4.9094C96.0046 4.85553 96.0008 4.80045 95.9835 4.74796C95.9661 4.69546 95.9357 4.64679 95.8942 4.60529C95.8527 4.56379 95.8012 4.53045 95.7432 4.50755C95.6851 4.48466 95.622 4.47275 95.5581 4.47266H93.1033C92.9979 4.47297 92.8961 4.5053 92.8161 4.56383C92.7361 4.62236 92.6832 4.70328 92.6668 4.79209Z" fill="#167FC4"/>
<path d="M5.64348 19.3215L6.04976 17.1199L5.14477 17.102H0.823364L3.82652 0.856327C3.83546 0.806689 3.86501 0.761445 3.90979 0.728842C3.95456 0.69624 4.01158 0.678449 4.07044 0.678714H11.3569C13.7759 0.678714 15.4453 1.10817 16.3169 1.95581C16.7255 2.35345 16.9857 2.76898 17.1116 3.22627C17.2436 3.70609 17.246 4.27936 17.117 4.97855L17.1077 5.02958V5.47759L17.5163 5.67508C17.8282 5.80991 18.1086 5.99229 18.3436 6.21322C18.6932 6.55321 18.9192 6.98531 19.0148 7.49761C19.1134 8.02448 19.0808 8.65143 18.9192 9.36122C18.7328 10.1777 18.4314 10.8888 18.0243 11.4707C17.6652 11.992 17.1823 12.4435 16.6066 12.7962C16.066 13.1236 15.4236 13.3721 14.6972 13.5312C13.9934 13.6876 13.191 13.7664 12.3109 13.7664H11.7438C11.3383 13.7664 10.9445 13.891 10.6353 14.1144C10.3265 14.3401 10.1217 14.652 10.0573 14.9945L10.0146 15.1926L9.29683 19.073L9.26421 19.2154C9.25566 19.2605 9.2409 19.283 9.21915 19.2983C9.19808 19.313 9.17179 19.3212 9.14458 19.3215H5.64348Z" fill="#022273"/>
<path d="M17.9029 5.08179C17.8811 5.20042 17.8563 5.3217 17.8283 5.44629C16.8674 9.65533 13.5799 11.1094 9.38124 11.1094H7.24345C6.72998 11.1094 6.2973 11.4275 6.21728 11.8596L5.12276 17.7818L4.81281 19.4605C4.80046 19.5271 4.80518 19.5952 4.82663 19.6601C4.84808 19.7249 4.88575 19.7851 4.93706 19.8364C4.98837 19.8876 5.0521 19.9288 5.12385 19.9571C5.1956 19.9853 5.27367 19.9999 5.35269 20H9.14431C9.59331 20 9.97472 19.7216 10.0454 19.3439L10.0827 19.1795L10.7966 15.3144L10.8424 15.1024C10.9123 14.7233 11.2945 14.4449 11.7435 14.4449H12.3106C15.9841 14.4449 18.8599 13.1725 19.7004 9.49031C20.0515 7.9521 19.8698 6.66771 18.9407 5.7644C18.6462 5.48497 18.2945 5.25365 17.9029 5.08179Z" fill="#167FC4"/>
<path d="M16.8965 4.73907C16.5896 4.66335 16.2775 4.60425 15.962 4.56212C15.3384 4.48037 14.7082 4.44114 14.0774 4.44482H8.36628C8.14893 4.44467 7.9387 4.51087 7.77357 4.63145C7.60845 4.75202 7.49934 4.91902 7.46596 5.10225L6.25102 11.6673L6.21606 11.8588C6.25391 11.6498 6.37819 11.4593 6.56641 11.3217C6.75463 11.1841 6.99436 11.1085 7.24223 11.1086H9.38002C13.5787 11.1086 16.8662 9.65392 17.8271 5.44555C17.8558 5.32095 17.8799 5.19967 17.9016 5.08104C17.6481 4.9676 17.3838 4.8725 17.1116 4.79673C17.0403 4.77653 16.9685 4.75731 16.8965 4.73907Z" fill="#022273"/>
<path d="M7.4682 5.1024C7.5013 4.91912 7.61035 4.75205 7.77556 4.63153C7.94077 4.51102 8.15116 4.44506 8.36853 4.44563H14.0796C14.7563 4.44563 15.3878 4.48341 15.9642 4.56294C16.3542 4.61524 16.7389 4.69346 17.1147 4.79688C17.3982 4.87707 17.6615 4.97185 17.9047 5.0812C18.1905 3.52576 17.9023 2.4667 16.9166 1.50772C15.8298 0.451986 13.8684 0 11.3585 0H4.07198C3.55928 0 3.12194 0.318113 3.0427 0.75088L0.00769798 17.1635C-0.00643856 17.2397 -0.00106009 17.3176 0.0234634 17.3919C0.0479869 17.4662 0.0910735 17.535 0.149759 17.5937C0.208445 17.6524 0.281337 17.6996 0.363422 17.7319C0.445506 17.7643 0.534835 17.7811 0.625264 17.7812H5.12378L6.25327 11.6675L7.4682 5.1024Z" fill="#022273"/>
</svg>
